<svg width="190" height="25" viewBox="0 0 190 25" fill="none" xmlns="http://www.w3.org/2000/svg">
<g id="Group 13">
<path id="Vector" d="M48.2 4.11598C47.8977 4.37887 47.7456 4.75358 47.7456 5.24405V6.1622H50.9549V9.25609H47.7456V19.6618H43.0106V9.25609H41.0586V6.16024H43.0106V4.84971C43.0106 3.34693 43.5232 2.16392 44.5482 1.29874C45.5733 0.433562 46.8887 0.00195312 48.4943 0.00195312C49.5474 0.00195312 50.5805 0.186368 51.5976 0.553236L50.9829 4.09244C50.2702 3.8472 49.7356 3.72557 49.3773 3.72557C48.8968 3.72164 48.5044 3.85309 48.2 4.11598Z" fill="#8E8E8E"/>
<path id="Vector_2" d="M59.8966 5.83449C60.6975 5.39307 61.6104 5.17334 62.6355 5.17334V9.48155C62.4733 9.46389 62.2311 9.45408 61.9067 9.45408C60.7736 9.45408 59.8566 9.71305 59.1559 10.2349C58.4551 10.7548 58.0507 11.463 57.9426 12.3616V19.6577H53.1416V5.35775H57.9426V7.73553C58.4451 6.90959 59.0978 6.27394 59.8966 5.83449Z" fill="#8E8E8E"/>
<path id="Vector_3" d="M71.5086 15.9989C72.0331 15.6595 72.3654 15.222 72.5056 14.6825V13.4583H69.7227C68.4113 13.4583 67.7546 13.9448 67.7546 14.9179C67.7546 15.4044 67.9248 15.7909 68.2672 16.0774C68.6075 16.3638 69.076 16.507 69.6706 16.507C70.3714 16.507 70.984 16.3363 71.5086 15.9989ZM75.4447 6.51527C76.5298 7.40988 77.0804 8.66545 77.0984 10.2801V19.6597H72.5056V17.8627C71.5606 19.0614 70.1351 19.6597 68.2271 19.6597C66.7216 19.6597 65.5363 19.2556 64.6714 18.4473C63.8045 17.639 63.3721 16.5757 63.3721 15.2553C63.3721 13.9174 63.8406 12.8756 64.7755 12.1281C65.7125 11.3807 67.0539 11.0001 68.8037 10.9824H72.5036V10.8255C72.5036 10.1486 72.2713 9.62676 71.8069 9.26186C71.3444 8.89695 70.6737 8.7145 69.7988 8.7145C69.2042 8.7145 68.5355 8.81063 67.7907 9.00093C67.0479 9.19123 66.2991 9.46981 65.5463 9.83472L64.261 6.70753C65.4162 6.18568 66.5234 5.79919 67.5805 5.54807C68.6396 5.29695 69.7367 5.16943 70.8739 5.16943C72.8379 5.17336 74.3615 5.62066 75.4447 6.51527Z" fill="#8E8E8E"/>
<path id="Vector_4" d="M101.522 6.65256C102.459 7.63938 102.927 8.9695 102.927 10.643V19.6577H98.2085V11.9927C98.2085 11.1825 97.9963 10.5429 97.5718 10.076C97.1474 9.60907 96.5728 9.37561 95.848 9.37561C95.0172 9.39327 94.3585 9.69735 93.874 10.2879C93.3875 10.8784 93.1452 11.6494 93.1452 12.6009V19.6577H88.4263V11.9927C88.4263 11.1825 88.2141 10.5429 87.7896 10.076C87.3652 9.60907 86.7906 9.37561 86.0658 9.37561C85.235 9.39327 84.5723 9.69735 84.0778 10.2879C83.5832 10.8784 83.335 11.6494 83.335 12.6009V19.6577H78.6421V5.17334H83.335V7.71001C83.8295 6.8821 84.4702 6.25236 85.257 5.82075C86.0438 5.38914 86.9588 5.17334 88.0018 5.17334C89.1691 5.17334 90.1681 5.45585 90.997 6.0189C91.8278 6.58196 92.4204 7.3667 92.7728 8.37113C93.2313 7.31373 93.89 6.5172 94.7469 5.97965C95.6038 5.4421 96.6168 5.17334 97.782 5.17334C99.3397 5.17334 100.585 5.66575 101.522 6.65256Z" fill="#8E8E8E"/>
<path id="Vector_5" d="M114.651 11.1433C114.651 10.3193 114.407 9.65814 113.921 9.15983C113.434 8.65955 112.791 8.4104 111.993 8.4104C111.248 8.4104 110.623 8.65563 110.119 9.14609C109.614 9.63656 109.282 10.3016 109.122 11.1433H114.651ZM117.362 7.1744C118.622 8.54184 119.25 10.4154 119.25 12.7991C119.25 13.1679 119.242 13.4465 119.224 13.6407H109.228C109.458 14.447 109.856 15.065 110.425 15.4927C110.992 15.9224 111.684 16.1362 112.499 16.1362C113.12 16.1362 113.718 16.0126 114.293 15.7674C114.87 15.5221 115.396 15.1631 115.875 14.6903L118.347 17.1348C117.602 17.9588 116.704 18.5846 115.648 19.0143C114.593 19.4439 113.402 19.6577 112.073 19.6577C110.531 19.6577 109.184 19.3595 108.03 18.7651C106.879 18.1687 105.996 17.329 105.386 16.2421C104.775 15.1553 104.469 13.8938 104.469 12.4577C104.469 11.004 104.779 9.72092 105.4 8.60854C106.02 7.49615 106.897 6.63685 108.032 6.0326C109.168 5.42835 110.479 5.12622 111.967 5.12622C114.305 5.12622 116.105 5.80895 117.362 7.1744Z" fill="#8E8E8E"/>
<path id="Vector_6" d="M118.521 5.17334H123.431L126.358 14.9728L129.233 5.17334H133.843L136.744 14.9728L139.674 5.17334H144.39L139.023 19.6577H134.25L131.457 10.7156L128.636 19.6577H123.863L118.521 5.17334Z" fill="#8E8E8E"/>
<path id="Vector_7" d="M170.708 5.91296C171.503 5.47547 172.412 5.25574 173.431 5.25574V9.53844C173.27 9.52079 173.028 9.51294 172.706 9.51294C171.579 9.51294 170.668 9.7719 169.971 10.2879C169.274 10.8038 168.872 11.5101 168.764 12.4028V19.6558H163.991V5.17334H168.764V7.80616C169.264 6.98218 169.913 6.35242 170.708 5.91296Z" fill="#8E8E8E"/>
<path id="Vector_8" d="M184.322 19.6579L181.241 14.2529L179.753 15.7636V19.6579H174.94V0H179.753V10.1742L184.43 5.32449H189.892L184.538 10.8628L190 19.6579H184.322Z" fill="#8E8E8E"/>
<path id="Vector_9" d="M158.189 6.0758C159.62 6.67809 160.731 7.52561 161.522 8.61637C162.313 9.70716 162.707 10.9686 162.707 12.4008C162.707 13.8506 162.313 15.1199 161.522 16.2127C160.731 17.3035 159.62 18.151 158.189 18.7533C156.757 19.3556 155.101 19.6577 153.22 19.6577C151.34 19.6577 149.682 19.3556 148.25 18.7533C146.819 18.151 145.712 17.3035 144.933 16.2127C144.152 15.1219 143.764 13.8506 143.764 12.4008C143.764 10.9686 144.154 9.70716 144.933 8.61637C145.714 7.52561 146.819 6.67809 148.25 6.0758C149.682 5.4735 151.338 5.17334 153.22 5.17334C155.101 5.17334 156.757 5.4735 158.189 6.0758Z" fill="#8E8E8E"/>
<path id="Vector_10" d="M146.274 18.1179C146.603 18.2572 146.859 18.4514 147.039 18.7005C147.221 18.9517 147.311 19.2401 147.311 19.5696C147.311 19.9012 147.221 20.1935 147.039 20.4446C146.857 20.6958 146.603 20.89 146.274 21.0273C145.946 21.1666 145.566 21.2353 145.133 21.2353C144.703 21.2353 144.322 21.1666 143.992 21.0273C143.664 20.89 143.409 20.6958 143.231 20.4446C143.053 20.1935 142.963 19.9032 142.963 19.5696C142.963 19.242 143.053 18.9517 143.231 18.7005C143.409 18.4494 143.664 18.2552 143.992 18.1179C144.32 17.9786 144.701 17.9099 145.133 17.9099C145.566 17.9099 145.946 17.9805 146.274 18.1179Z" fill="#8E8E8E"/>
<path id="Vector_11" d="M12.7653 6.0581C13.8484 6.6545 14.7073 7.50987 15.342 8.62225C15.9766 9.73659 16.295 11.0295 16.295 12.5028C16.295 13.9762 15.9766 15.273 15.342 16.3971C14.7073 17.5193 13.8484 18.3825 12.7653 18.9887C11.6822 19.593 10.4789 19.8971 9.15352 19.8971C7.23752 19.8971 5.80605 19.3438 4.85906 18.2393V19.6597H0V0.13916H5.10132V6.63685C6.08634 5.65395 7.43773 5.16349 9.15552 5.16349C10.4789 5.16349 11.6822 5.46169 12.7653 6.0581ZM10.2827 15.016C10.8553 14.4117 11.1416 13.574 11.1416 12.5028C11.1416 11.4513 10.8553 10.6273 10.2827 10.0309C9.7101 9.43446 8.97533 9.13626 8.0804 9.13626C7.18547 9.13626 6.45072 9.43446 5.87813 10.0309C5.30553 10.6273 5.01923 11.4513 5.01923 12.5028C5.01923 13.572 5.30553 14.4097 5.87813 15.016C6.45072 15.6202 7.18347 15.9243 8.0804 15.9243C8.97533 15.9223 9.7101 15.6202 10.2827 15.016Z" fill="#8E8E8E"/>
<path id="Vector_12" d="M33.5852 5.40088L27.3027 20.2385C26.5679 21.9924 25.675 23.2244 24.6179 23.9346C23.5608 24.6448 22.2734 24.9999 20.7519 24.9999C19.9831 24.9999 19.2083 24.8822 18.4294 24.6448C17.6506 24.4074 17.02 24.0975 16.5375 23.711L18.3093 20.213C18.5956 20.4759 18.94 20.6819 19.3424 20.831C19.7448 20.9801 20.1512 21.0546 20.5637 21.0546C21.0462 21.0546 21.4446 20.9585 21.7589 20.7662C22.0712 20.574 22.3355 20.2659 22.5517 19.8461L16.3232 5.40088H21.5587L25.1284 14.1077L28.7262 5.40088H33.5852Z" fill="#8E8E8E"/>
</g>
</svg>
