<svg width="200" height="60" viewBox="0 0 200 60" fill="none" xmlns="http://www.w3.org/2000/svg">
<g id="logo-araujo-cor">
<path id="Caminho 3" fill-rule="evenodd" clip-rule="evenodd" d="M16.0219 31.4104H22.7619L19.4567 21.5514H19.37L16.0219 31.4104ZM11.5851 15.0887H27.6374L38.4673 45.1473H26.2426L24.2425 38.6481H14.4127L12.5422 45.1502H0.930664L11.5851 15.0887Z" fill="#CE000C"/>
<path id="Caminho 4" fill-rule="evenodd" clip-rule="evenodd" d="M50.7272 28.2253H53.7712C56.1641 28.2253 58.5121 27.9656 58.5121 24.909C58.5121 22.196 56.2937 21.808 53.9457 21.808H50.7272V28.2253ZM39.5933 15.0945H58.4274C65.6908 15.0945 70.1715 17.3337 70.1715 23.1043C70.1715 27.7119 67.2582 30.0379 62.9091 31.0716V31.1584C63.9489 31.2994 64.9457 31.6609 65.8315 32.2183C66.7173 32.7756 67.4713 33.5156 68.0418 34.3879C69.8246 37.5738 69.6939 42.2248 70.9123 45.1491H58.7783C58.2559 42.9969 58.1263 38.3014 57.1691 36.4937C56.4712 35.1115 55.2987 34.9437 53.8629 34.9437H51.2487V45.1501H39.5933V15.0945Z" fill="#CE000C"/>
<path id="Caminho 5" fill-rule="evenodd" clip-rule="evenodd" d="M86.0859 31.4161H92.8259L89.5207 21.5552H89.4339L86.0859 31.4161ZM81.648 15.0945H97.7004L108.53 45.153H96.3055L94.3055 38.6498H84.4776L82.6072 45.152H70.9946L81.648 15.0945Z" fill="#CE000C"/>
<path id="Caminho 6" fill-rule="evenodd" clip-rule="evenodd" d="M121.661 32.9189C121.661 35.7613 122.488 37.9145 125.271 37.9145C128.316 37.9145 128.969 35.8906 128.967 32.9613V15.0917H140.36V32.7481C140.36 42.4797 134.314 45.6686 125.138 45.6686C116.657 45.6686 110.004 42.224 110.004 33.3533V15.0887H121.659L121.661 32.9189Z" fill="#CE000C"/>
<path id="Caminho 7" fill-rule="evenodd" clip-rule="evenodd" d="M161.237 35.6742C161.237 41.1861 158.106 45.6664 150.017 45.6664C147.529 45.6339 145.057 45.2716 142.667 44.5892V36.4541C143.457 36.9141 144.36 37.1529 145.277 37.1452C148.321 37.1452 149.582 35.2506 149.582 32.968V15.0984H161.236L161.237 35.6742Z" fill="#CE000C"/>
<path id="Caminho 8" fill-rule="evenodd" clip-rule="evenodd" d="M181.065 38.4314C185.677 38.4314 185.806 33.3479 185.851 30.1185C185.807 27.3196 185.502 21.8076 181.065 21.8076C176.761 21.8076 176.412 27.3196 176.412 30.1185C176.412 33.3489 176.891 38.4314 181.066 38.4314H181.065ZM181.066 45.6661C170.454 45.6661 164.235 40.3704 164.235 30.1195C164.235 20.0434 170.454 14.5739 181.065 14.5739C191.677 14.5739 198.027 20.0414 198.028 30.1185C198.028 40.3684 191.679 45.6661 181.067 45.6661" fill="#CE000C"/>
<path id="Ret&#195;&#162;ngulo 1" d="M160.26 52.1462H0V60H160.26V52.1462Z" fill="#003A74"/>
<path id="Ret&#195;&#162;ngulo 2" d="M200 0H39.7417V7.85574H200V0Z" fill="#003A74"/>
</g>
</svg>
